<svg width="16" height="16" viewBox="0 0 16 16" fill="none" xmlns="http://www.w3.org/2000/svg">
<g id="Paper Plane">
<path id="Vector" d="M13.9925 1.0715L13.9925 1.07152L1.49156 5.80308L1.48327 5.80622V5.80534C1.34617 5.85945 1.22872 5.954 1.14657 6.07649C1.06324 6.20074 1.0203 6.34768 1.02362 6.49725C1.02693 6.64682 1.07633 6.79172 1.16507 6.91216C1.25378 7.03255 1.37747 7.12263 1.51927 7.17012C1.51933 7.17014 1.51939 7.17016 1.51945 7.17018L1.53191 7.17413L1.53408 7.17481L1.53403 7.17492L5.82347 9.0066C5.90288 9.03048 5.98716 9.03322 6.06797 9.01455C6.14919 8.99579 6.22406 8.95605 6.28512 8.8993L13.1708 2.48334C13.1709 2.48324 13.171 2.48314 13.1711 2.48304C13.1937 2.46048 13.2205 2.44258 13.25 2.43035C13.2797 2.41807 13.3115 2.41175 13.3436 2.41175C13.3757 2.41175 13.4075 2.41807 13.4371 2.43035C13.4668 2.44264 13.4937 2.46064 13.5164 2.48334C13.5391 2.50603 13.5571 2.53297 13.5694 2.56263C13.5817 2.59228 13.588 2.62406 13.588 2.65616C13.588 2.68825 13.5817 2.72004 13.5694 2.74969C13.5572 2.77921 13.5393 2.80605 13.5167 2.82869C13.5166 2.82878 13.5165 2.82888 13.5164 2.82898L7.10012 9.71149L13.9925 1.0715ZM13.9925 1.0715C14.1235 1.02171 14.266 1.01083 14.4029 1.04015C14.5399 1.06947 14.6654 1.13775 14.7645 1.23676M13.9925 1.0715L14.7645 1.23676M14.7645 1.23676C14.8636 1.33623 14.9317 1.46227 14.9607 1.59965C14.9896 1.73703 14.9781 1.87985 14.9276 2.01085L14.9276 2.01099L10.1968 14.5081L14.7645 1.23676ZM9.46858 14.9999H9.49983C9.65427 15.0008 9.80542 14.9552 9.9336 14.869C10.0618 14.7829 10.1611 14.6601 10.2186 14.5168L10.1967 14.5085L10.1967 14.5083C10.141 14.6472 10.0447 14.7661 9.92052 14.8496C9.79624 14.9331 9.64971 14.9773 9.49996 14.9765H9.49983H9.4691M9.46858 14.9999L9.46963 14.9765C9.46945 14.9765 9.46928 14.9765 9.4691 14.9765M9.46858 14.9999V14.9765H9.4691M9.46858 14.9999C9.16264 14.9862 8.90952 14.7818 8.80952 14.4921C8.80733 14.4862 8.80545 14.4805 8.80358 14.4743L6.97077 10.1812M9.4691 14.9765C9.17379 14.963 8.92874 14.7657 8.83168 14.4844L8.83151 14.484C8.82949 14.4785 8.82777 14.4734 8.82603 14.4675L8.82617 14.4675L8.82513 14.4651L6.99283 10.1731M6.99283 10.1731C6.99295 10.1735 6.99307 10.1739 6.99319 10.1743L6.97077 10.1812M6.99283 10.1731C6.96895 10.0937 6.9662 10.0095 6.98487 9.92865C7.00363 9.84744 7.04336 9.77257 7.1001 9.71152L6.96204 9.92337C6.94235 10.0086 6.94536 10.0975 6.97077 10.1812M6.99283 10.1731L6.99232 10.172L6.97077 10.1812" fill="black" stroke="#112211" stroke-width="0.046875"/>
</g>
</svg>
